<?xml version="1.0" encoding="iso-8859-1"?>
<!-- Generator: Adobe Illustrator 18.0.0, SVG Export Plug-In . SVG Version: 6.00 Build 0)  -->
<!DOCTYPE svg PUBLIC "-//W3C//DTD SVG 1.1//EN" "http://www.w3.org/Graphics/SVG/1.1/DTD/svg11.dtd">
<svg xmlns="http://www.w3.org/2000/svg" xmlns:xlink="http://www.w3.org/1999/xlink" version="1.1" id="Capa_1" x="0px" y="0px" viewBox="0 0 219.479 219.479" style="enable-background:new 0 0 219.479 219.479;" xml:space="preserve" width="512px" height="512px">
<g>
	<path d="M129.453,128.552c-1.744-1.358-4.255-1.045-5.614,0.696c-3.414,4.381-8.553,6.894-14.099,6.894s-10.685-2.513-14.099-6.894   c-1.358-1.743-3.871-2.055-5.614-0.697s-2.055,3.872-0.697,5.614c4.941,6.341,12.38,9.977,20.409,9.977s15.468-3.636,20.409-9.976   C131.507,132.424,131.195,129.911,129.453,128.552z" fill="#da5400"/>
	<path d="M109.74,113.871c-2.1,0-3.65-0.371-4.339-0.688c-2.006-0.924-4.382-0.046-5.307,1.96c-0.924,2.006-0.047,4.382,1.96,5.307   c1.991,0.917,4.721,1.422,7.686,1.422s5.695-0.505,7.686-1.422c2.007-0.924,2.884-3.3,1.96-5.307   c-0.925-2.007-3.301-2.884-5.307-1.96C113.39,113.5,111.839,113.871,109.74,113.871z" fill="#da5400"/>
	<path d="M110.475,0h-1.471C65.272,0,29.694,35.579,29.694,79.311v133.669c0,3.59,2.91,6.5,6.5,6.5s6.5-2.91,6.5-6.5V79.311   c0-34.62,26.673-63.111,60.546-66.044v52.042l-40.184,0c-3.59,0-6.5,2.91-6.5,6.5v55.823c0,0.056-0.001,0.112,0,0.168v85.18   c0,3.59,2.91,6.5,6.5,6.5s6.5-2.91,6.5-6.5v-61.917c10.226,10.727,24.583,17.155,40.184,17.155c15.6,0,29.957-6.428,40.183-17.154   v61.917c0,3.59,2.91,6.5,6.5,6.5s6.5-2.91,6.5-6.5v-85.178c0.001-0.054,0-0.107,0-0.16V71.809c0-1.724-0.685-3.377-1.904-4.596   c-1.219-1.219-2.873-1.904-4.596-1.904l-40.184,0V13.266c33.873,2.933,60.546,31.424,60.546,66.044v133.669   c0,3.59,2.91,6.5,6.5,6.5s6.5-2.91,6.5-6.5V79.311C189.786,35.579,154.207,0,110.475,0z M149.923,126.61   c-5.924,17.149-21.946,28.607-40.183,28.607c-18.239,0-34.262-11.46-40.184-28.613V78.309l40.179,0c0.002,0,0.003,0,0.005,0   s0.003,0,0.005,0l40.179,0V126.61z" fill="#da5400"/>
	<path d="M102.172,92.594c0-2.209-1.791-4-4-4H86.8c-2.209,0-4,1.791-4,4s1.791,4,4,4h11.372   C100.381,96.594,102.172,94.803,102.172,92.594z" fill="#da5400"/>
	<path d="M121.308,96.594h11.372c2.209,0,4-1.791,4-4s-1.791-4-4-4h-11.372c-2.209,0-4,1.791-4,4S119.099,96.594,121.308,96.594z" fill="#da5400"/>
</g>
<g>
</g>
<g>
</g>
<g>
</g>
<g>
</g>
<g>
</g>
<g>
</g>
<g>
</g>
<g>
</g>
<g>
</g>
<g>
</g>
<g>
</g>
<g>
</g>
<g>
</g>
<g>
</g>
<g>
</g>
</svg>
